<svg xmlns="http://www.w3.org/2000/svg" xmlns:xlink="http://www.w3.org/1999/xlink" width="24px" height="24px" viewBox="0 0 24 24" version="1.1">
	<!-- Generator: sketchtool 40.1 (33804) - http://www.bohemiancoding.com/sketch -->
	<defs/>
	<g id="Symbols" stroke="none" stroke-width="1" fill="none" fill-rule="evenodd">
		<g id="Icons/Publish/ico_delete_light_background">
			<rect id="safe_area" fill-opacity="0" fill="#FFFFFF" x="0" y="0" width="24" height="24"/>
			<path d="M15,4 L15,2 L9,2 L9,4 L3,4 L3,6 L21,6 L21,4 L15,4 Z M5,7 L5,19 C5,20.103 5.897,21 7,21 L17,21 C18.103,21 19,20.103 19,19 L19,7 L5,7 Z M11,17 L9,17 L9,11 L11,11 L11,17 Z M15,17 L13,17 L13,11 L15,11 L15,17 Z" id="ico_delete" fill-opacity="0.379999995" fill="#000000"/>
		</g>
	</g>
</svg>
